{
  "accessors": [
    {
      "bufferView": 2,
      "componentType": 5126,
      "count": 854,
      "max": [
        0.3196633756160736,
        0.67043137550354,
        0.30296874046325684
      ],
      "min": [
        -0.3196637034416199,
        0.008124885149300098,
        -0.3029690384864807
      ],
      "type": "VEC3"
    },
    {
      "bufferView": 2,
      "byteOffset": 10248,
      "componentType": 5126,
      "count": 854,
      "type": "VEC3"
    },
    {
      "bufferView": 3,
      "componentType": 5126,
      "count": 854,
      "type": "VEC4"
    },
    {
      "bufferView": 1,
      "componentType": 5126,
      "count": 854,
      "type": "VEC2"
    },
    {
      "bufferView": 1,
      "byteOffset": 6832,
      "componentType": 5126,
      "count": 854,
      "type": "VEC2"
    },
    {
      "bufferView": 1,
      "byteOffset": 13664,
      "componentType": 5126,
      "count": 854,
      "type": "VEC2"
    },
    {
      "bufferView": 1,
      "byteOffset": 20496,
      "componentType": 5126,
      "count": 854,
      "type": "VEC2"
    },
    {
      "bufferView": 1,
      "byteOffset": 27328,
      "componentType": 5126,
      "count": 854,
      "type": "VEC2"
    },
    {
      "bufferView": 1,
      "byteOffset": 34160,
      "componentType": 5126,
      "count": 854,
      "type": "VEC2"
    },
    {
      "bufferView": 0,
      "componentType": 5125,
      "count": 2397,
      "type": "SCALAR"
    },
    {
      "bufferView": 2,
      "byteOffset": 20496,
      "componentType": 5126,
      "count": 1734,
      "max": [
        0.32081541419029236,
        0.6718494892120361,
        0.41132110357284546
      ],
      "min": [
        -0.3208160400390625,
        0.0009103953489102423,
        -0.4113203287124634
      ],
      "type": "VEC3"
    },
    {
      "bufferView": 2,
      "byteOffset": 41304,
      "componentType": 5126,
      "count": 1734,
      "type": "VEC3"
    },
    {
      "bufferView": 3,
      "byteOffset": 13664,
      "componentType": 5126,
      "count": 1734,
      "type": "VEC4"
    },
    {
      "bufferView": 1,
      "byteOffset": 40992,
      "componentType": 5126,
      "count": 1734,
      "type": "VEC2"
    },
    {
      "bufferView": 1,
      "byteOffset": 54864,
      "componentType": 5126,
      "count": 1734,
      "type": "VEC2"
    },
    {
      "bufferView": 1,
      "byteOffset": 68736,
      "componentType": 5126,
      "count": 1734,
      "type": "VEC2"
    },
    {
      "bufferView": 1,
      "byteOffset": 82608,
      "componentType": 5126,
      "count": 1734,
      "type": "VEC2"
    },
    {
      "bufferView": 1,
      "byteOffset": 96480,
      "componentType": 5126,
      "count": 1734,
      "type": "VEC2"
    },
    {
      "bufferView": 1,
      "byteOffset": 110352,
      "componentType": 5126,
      "count": 1734,
      "type": "VEC2"
    },
    {
      "bufferView": 0,
      "byteOffset": 9588,
      "componentType": 5125,
      "count": 4620,
      "type": "SCALAR"
    },
    {
      "bufferView": 2,
      "byteOffset": 62112,
      "componentType": 5126,
      "count": 1837,
      "max": [
        0.3786212205886841,
        1.5137646198272705,
        0.40898650884628296
      ],
      "min": [
        -0.3786208927631378,
        0.0036008404567837715,
        -0.40898722410202026
      ],
      "type": "VEC3"
    },
    {
      "bufferView": 2,
      "byteOffset": 84156,
      "componentType": 5126,
      "count": 1837,
      "type": "VEC3"
    },
    {
      "bufferView": 3,
      "byteOffset": 41408,
      "componentType": 5126,
      "count": 1837,
      "type": "VEC4"
    },
    {
      "bufferView": 1,
      "byteOffset": 124224,
      "componentType": 5126,
      "count": 1837,
      "type": "VEC2"
    },
    {
      "bufferView": 1,
      "byteOffset": 138920,
      "componentType": 5126,
      "count": 1837,
      "type": "VEC2"
    },
    {
      "bufferView": 1,
      "byteOffset": 153616,
      "componentType": 5126,
      "count": 1837,
      "type": "VEC2"
    },
    {
      "bufferView": 1,
      "byteOffset": 168312,
      "componentType": 5126,
      "count": 1837,
      "type": "VEC2"
    },
    {
      "bufferView": 1,
      "byteOffset": 183008,
      "componentType": 5126,
      "count": 1837,
      "type": "VEC2"
    },
    {
      "bufferView": 1,
      "byteOffset": 197704,
      "componentType": 5126,
      "count": 1837,
      "type": "VEC2"
    },
    {
      "bufferView": 0,
      "byteOffset": 28068,
      "componentType": 5125,
      "count": 5274,
      "type": "SCALAR"
    }
  ],
  "asset": {
    "generator": "fab-model-conversion",
    "version": "2.0"
  },
  "bufferViews": [
    {
      "buffer": 0,
      "byteLength": 49164,
      "target": 34963
    },
    {
      "buffer": 0,
      "byteLength": 212400,
      "byteOffset": 49164,
      "byteStride": 8,
      "target": 34962
    },
    {
      "buffer": 0,
      "byteLength": 106200,
      "byteOffset": 261564,
      "byteStride": 12,
      "target": 34962
    },
    {
      "buffer": 0,
      "byteLength": 70800,
      "byteOffset": 367764,
      "byteStride": 16,
      "target": 34962
    }
  ],
  "buffers": [
    {
      "byteLength": 438564,
      "uri": "scene.bin"
    }
  ],
  "images": [
    {
      "uri": "textures/material_baseColor.png"
    },
    {
      "uri": "textures/material_metallicRoughness.png"
    },
    {
      "uri": "textures/material_normal.png"
    }
  ],
  "materials": [
    {
      "doubleSided": true,
      "name": "material",
      "normalTexture": {
        "index": 2
      },
      "occlusionTexture": {
        "index": 1
      },
      "pbrMetallicRoughness": {
        "baseColorTexture": {
          "index": 0
        },
        "metallicRoughnessTexture": {
          "index": 1
        }
      }
    }
  ],
  "meshes": [
    {
      "name": "box1_box_0",
      "primitives": [
        {
          "attributes": {
            "NORMAL": 1,
            "POSITION": 0,
            "TANGENT": 2,
            "TEXCOORD_0": 3,
            "TEXCOORD_1": 4,
            "TEXCOORD_2": 5,
            "TEXCOORD_3": 6,
            "TEXCOORD_4": 7,
            "TEXCOORD_5": 8
          },
          "indices": 9,
          "material": 0,
          "mode": 4
        }
      ]
    },
    {
      "name": "box2_box_0",
      "primitives": [
        {
          "attributes": {
            "NORMAL": 11,
            "POSITION": 10,
            "TANGENT": 12,
            "TEXCOORD_0": 13,
            "TEXCOORD_1": 14,
            "TEXCOORD_2": 15,
            "TEXCOORD_3": 16,
            "TEXCOORD_4": 17,
            "TEXCOORD_5": 18
          },
          "indices": 19,
          "material": 0,
          "mode": 4
        }
      ]
    },
    {
      "name": "box_box_0",
      "primitives": [
        {
          "attributes": {
            "NORMAL": 21,
            "POSITION": 20,
            "TANGENT": 22,
            "TEXCOORD_0": 23,
            "TEXCOORD_1": 24,
            "TEXCOORD_2": 25,
            "TEXCOORD_3": 26,
            "TEXCOORD_4": 27,
            "TEXCOORD_5": 28
          },
          "indices": 29,
          "material": 0,
          "mode": 4
        }
      ]
    }
  ],
  "nodes": [
    {
      "children": [
        1
      ],
      "matrix": [
        1.0,
        0.0,
        0.0,
        0.0,
        0.0,
        2.220446049250313e-16,
        -1.0,
        0.0,
        0.0,
        1.0,
        2.220446049250313e-16,
        0.0,
        0.0,
        0.0,
        0.0,
        1.0
      ],
      "name": "Sketchfab_model"
    },
    {
      "children": [
        2
      ],
      "matrix": [
        0.009999999776482582,
        0.0,
        0.0,
        0.0,
        0.0,
        0.0,
        0.009999999776482582,
        0.0,
        0.0,
        -0.009999999776482582,
        0.0,
        0.0,
        0.0,
        0.0,
        0.0,
        1.0
      ],
      "name": "box.fbx"
    },
    {
      "children": [
        3,
        5,
        7
      ],
      "name": "RootNode"
    },
    {
      "children": [
        4
      ],
      "matrix": [
        41.09320068359375,
        0.0,
        0.0,
        0.0,
        0.0,
        41.09320068359371,
        1.7962408966480284e-06,
        0.0,
        0.0,
        -1.7962408966480284e-06,
        41.09320068359371,
        0.0,
        -1.0763919353485107,
        0.11244392395019531,
        7.552523584308801e-07,
        1.0
      ],
      "name": "box1"
    },
    {
      "mesh": 0,
      "name": "box1_box_0"
    },
    {
      "children": [
        6
      ],
      "matrix": [
        41.09320068359375,
        0.0,
        0.0,
        0.0,
        0.0,
        41.09320068359371,
        1.7962408966480284e-06,
        0.0,
        0.0,
        -1.7962408966480284e-06,
        41.09320068359371,
        0.0,
        -41.962886810302734,
        0.11244392395019531,
        7.552523584308801e-07,
        1.0
      ],
      "name": "box2"
    },
    {
      "mesh": 1,
      "name": "box2_box_0"
    },
    {
      "children": [
        8
      ],
      "matrix": [
        41.09320068359375,
        0.0,
        0.0,
        0.0,
        0.0,
        41.09320068359371,
        1.7962408966480284e-06,
        0.0,
        0.0,
        -1.7962408966480284e-06,
        41.09320068359371,
        0.0,
        43.119834899902344,
        0.11244392395019531,
        7.552523584308801e-07,
        1.0
      ],
      "name": "box"
    },
    {
      "mesh": 2,
      "name": "box_box_0"
    }
  ],
  "samplers": [
    {
      "magFilter": 9729,
      "minFilter": 9987,
      "wrapS": 10497,
      "wrapT": 10497
    }
  ],
  "scene": 0,
  "scenes": [
    {
      "name": "Sketchfab_Scene",
      "nodes": [
        0
      ]
    }
  ],
  "textures": [
    {
      "sampler": 0,
      "source": 0
    },
    {
      "sampler": 0,
      "source": 1
    },
    {
      "sampler": 0,
      "source": 2
    }
  ]
}
