{
  "accessors": [
    {
      "bufferView": 2,
      "componentType": 5126,
      "count": 4721,
      "max": [
        151.53610229492188,
        57.60749816894531,
        74.5438003540039
      ],
      "min": [
        -143.46209716796875,
        -58.94960021972656,
        -1.3675999641418457
      ],
      "type": "VEC3"
    },
    {
      "bufferView": 2,
      "byteOffset": 56652,
      "componentType": 5126,
      "count": 4721,
      "type": "VEC3"
    },
    {
      "bufferView": 1,
      "componentType": 5126,
      "count": 4721,
      "type": "VEC2"
    },
    {
      "bufferView": 1,
      "byteOffset": 37768,
      "componentType": 5126,
      "count": 4721,
      "type": "VEC2"
    },
    {
      "bufferView": 1,
      "byteOffset": 75536,
      "componentType": 5126,
      "count": 4721,
      "type": "VEC2"
    },
    {
      "bufferView": 1,
      "byteOffset": 113304,
      "componentType": 5126,
      "count": 4721,
      "type": "VEC2"
    },
    {
      "bufferView": 0,
      "componentType": 5125,
      "count": 15537,
      "type": "SCALAR"
    }
  ],
  "asset": {
    "version": "2.0"
  },
  "bufferViews": [
    {
      "buffer": 0,
      "byteLength": 62148,
      "target": 34963
    },
    {
      "buffer": 0,
      "byteLength": 151072,
      "byteOffset": 62148,
      "byteStride": 8,
      "target": 34962
    },
    {
      "buffer": 0,
      "byteLength": 113304,
      "byteOffset": 213220,
      "byteStride": 12,
      "target": 34962
    }
  ],
  "buffers": [
    {
      "byteLength": 326524,
      "uri": "scene.bin"
    }
  ],
  "images": [
    {
      "uri": "textures/RustyCar00a_BaseColor.jpeg"
    },
    {
      "uri": "textures/RustyCar00a_specularLevel.jpeg"
    }
  ],
  "materials": [
    {
      "doubleSided": true,
      "name": "RustyCar00a",
      "pbrMetallicRoughness": {
        "baseColorFactor": [
          0.337255001,
          0.337255001,
          0.337255001,
          1.0
        ],
        "baseColorTexture": {
          "index": 0
        },
        "metallicFactor": 0.0,
        "roughnessFactor": 0.892970979
      }
    }
  ],
  "meshes": [
    {
      "name": "RustyCar00a_RustyCar00a_0",
      "primitives": [
        {
          "attributes": {
            "NORMAL": 1,
            "POSITION": 0,
            "TEXCOORD_0": 2,
            "TEXCOORD_1": 3,
            "TEXCOORD_2": 4,
            "TEXCOORD_3": 5
          },
          "indices": 6,
          "material": 0,
          "mode": 4
        }
      ]
    }
  ],
  "nodes": [
    {
      "children": [
        1
      ],
      "matrix": [
        1.0,
        0.0,
        0.0,
        0.0,
        0.0,
        2.220446049250313e-16,
        -1.0,
        0.0,
        0.0,
        1.0,
        2.220446049250313e-16,
        0.0,
        0.0,
        0.0,
        0.0,
        1.0
      ],
      "name": "Sketchfab_model"
    },
    {
      "children": [
        2
      ],
      "matrix": [
        0.02539999969303608,
        0.0,
        0.0,
        0.0,
        0.0,
        0.0,
        0.02539999969303608,
        0.0,
        0.0,
        -0.02539999969303608,
        0.0,
        0.0,
        0.0,
        0.0,
        0.0,
        1.0
      ],
      "name": "RustyCar00a.FBX"
    },
    {
      "children": [
        3
      ],
      "name": "RootNode"
    },
    {
      "children": [
        4
      ],
      "matrix": [
        1.0,
        0.0,
        0.0,
        0.0,
        0.0,
        2.220446049250313e-16,
        -1.0,
        0.0,
        0.0,
        1.0,
        2.220446049250313e-16,
        0.0,
        -3.184967041015625,
        0.0,
        13.887252807617188,
        1.0
      ],
      "name": "RustyCar00a"
    },
    {
      "mesh": 0,
      "name": "RustyCar00a_RustyCar00a_0"
    }
  ],
  "samplers": [
    {
      "magFilter": 9729,
      "minFilter": 9987,
      "wrapS": 10497,
      "wrapT": 10497
    }
  ],
  "scene": 0,
  "scenes": [
    {
      "name": "Sketchfab_Scene",
      "nodes": [
        0
      ]
    }
  ],
  "textures": [
    {
      "sampler": 0,
      "source": 0
    }
  ]
}
