{
  "accessors": [
    {
      "bufferView": 2,
      "componentType": 5126,
      "count": 1724,
      "max": [
        334.807861328125,
        296.4060974121094,
        642.4430541992188
      ],
      "min": [
        -334.807861328125,
        -296.4060974121094,
        -642.4430541992188
      ],
      "type": "VEC3"
    },
    {
      "bufferView": 2,
      "byteOffset": 20688,
      "componentType": 5126,
      "count": 1724,
      "type": "VEC3"
    },
    {
      "bufferView": 3,
      "componentType": 5126,
      "count": 1724,
      "type": "VEC4"
    },
    {
      "bufferView": 1,
      "componentType": 5126,
      "count": 1724,
      "type": "VEC2"
    },
    {
      "bufferView": 1,
      "byteOffset": 13792,
      "componentType": 5126,
      "count": 1724,
      "type": "VEC2"
    },
    {
      "bufferView": 1,
      "byteOffset": 27584,
      "componentType": 5126,
      "count": 1724,
      "type": "VEC2"
    },
    {
      "bufferView": 0,
      "componentType": 5125,
      "count": 5898,
      "type": "SCALAR"
    },
    {
      "bufferView": 2,
      "byteOffset": 41376,
      "componentType": 5126,
      "count": 582,
      "max": [
        5.309021472930908,
        200.5723419189453,
        5.840088367462158
      ],
      "min": [
        -269.3245544433594,
        -310.81982421875,
        -10.615397453308105
      ],
      "type": "VEC3"
    },
    {
      "bufferView": 2,
      "byteOffset": 48360,
      "componentType": 5126,
      "count": 582,
      "type": "VEC3"
    },
    {
      "bufferView": 3,
      "byteOffset": 27584,
      "componentType": 5126,
      "count": 582,
      "type": "VEC4"
    },
    {
      "bufferView": 1,
      "byteOffset": 41376,
      "componentType": 5126,
      "count": 582,
      "type": "VEC2"
    },
    {
      "bufferView": 1,
      "byteOffset": 46032,
      "componentType": 5126,
      "count": 582,
      "type": "VEC2"
    },
    {
      "bufferView": 1,
      "byteOffset": 50688,
      "componentType": 5126,
      "count": 582,
      "type": "VEC2"
    },
    {
      "bufferView": 0,
      "byteOffset": 23592,
      "componentType": 5125,
      "count": 1704,
      "type": "SCALAR"
    },
    {
      "bufferView": 2,
      "byteOffset": 55344,
      "componentType": 5126,
      "count": 1304,
      "max": [
        5.621825695037842,
        272.6983642578125,
        8.491297721862793
      ],
      "min": [
        -5.621825695037842,
        -259.9278259277344,
        -8.491297721862793
      ],
      "type": "VEC3"
    },
    {
      "bufferView": 2,
      "byteOffset": 70992,
      "componentType": 5126,
      "count": 1304,
      "type": "VEC3"
    },
    {
      "bufferView": 3,
      "byteOffset": 36896,
      "componentType": 5126,
      "count": 1304,
      "type": "VEC4"
    },
    {
      "bufferView": 1,
      "byteOffset": 55344,
      "componentType": 5126,
      "count": 1304,
      "type": "VEC2"
    },
    {
      "bufferView": 1,
      "byteOffset": 65776,
      "componentType": 5126,
      "count": 1304,
      "type": "VEC2"
    },
    {
      "bufferView": 1,
      "byteOffset": 76208,
      "componentType": 5126,
      "count": 1304,
      "type": "VEC2"
    },
    {
      "bufferView": 0,
      "byteOffset": 30408,
      "componentType": 5125,
      "count": 5586,
      "type": "SCALAR"
    },
    {
      "bufferView": 2,
      "byteOffset": 86640,
      "componentType": 5126,
      "count": 1402,
      "max": [
        5.621825695037842,
        272.6983642578125,
        8.491297721862793
      ],
      "min": [
        -5.621825695037842,
        -259.9278259277344,
        -8.491297721862793
      ],
      "type": "VEC3"
    },
    {
      "bufferView": 2,
      "byteOffset": 103464,
      "componentType": 5126,
      "count": 1402,
      "type": "VEC3"
    },
    {
      "bufferView": 3,
      "byteOffset": 57760,
      "componentType": 5126,
      "count": 1402,
      "type": "VEC4"
    },
    {
      "bufferView": 1,
      "byteOffset": 86640,
      "componentType": 5126,
      "count": 1402,
      "type": "VEC2"
    },
    {
      "bufferView": 1,
      "byteOffset": 97856,
      "componentType": 5126,
      "count": 1402,
      "type": "VEC2"
    },
    {
      "bufferView": 1,
      "byteOffset": 109072,
      "componentType": 5126,
      "count": 1402,
      "type": "VEC2"
    },
    {
      "bufferView": 0,
      "byteOffset": 52752,
      "componentType": 5125,
      "count": 5892,
      "type": "SCALAR"
    },
    {
      "bufferView": 2,
      "byteOffset": 120288,
      "componentType": 5126,
      "count": 322,
      "max": [
        30.03118133544922,
        266.3131103515625,
        582.251708984375
      ],
      "min": [
        -2.384185791015625e-05,
        -266.3131103515625,
        -582.251708984375
      ],
      "type": "VEC3"
    },
    {
      "bufferView": 2,
      "byteOffset": 124152,
      "componentType": 5126,
      "count": 322,
      "type": "VEC3"
    },
    {
      "bufferView": 3,
      "byteOffset": 80192,
      "componentType": 5126,
      "count": 322,
      "type": "VEC4"
    },
    {
      "bufferView": 1,
      "byteOffset": 120288,
      "componentType": 5126,
      "count": 322,
      "type": "VEC2"
    },
    {
      "bufferView": 1,
      "byteOffset": 122864,
      "componentType": 5126,
      "count": 322,
      "type": "VEC2"
    },
    {
      "bufferView": 1,
      "byteOffset": 125440,
      "componentType": 5126,
      "count": 322,
      "type": "VEC2"
    },
    {
      "bufferView": 0,
      "byteOffset": 76320,
      "componentType": 5125,
      "count": 516,
      "type": "SCALAR"
    },
    {
      "bufferView": 2,
      "byteOffset": 128016,
      "componentType": 5126,
      "count": 582,
      "max": [
        5.309057235717773,
        200.5723419189453,
        6.764781475067139
      ],
      "min": [
        -11.14645004272461,
        -310.81982421875,
        -267.8687744140625
      ],
      "type": "VEC3"
    },
    {
      "bufferView": 2,
      "byteOffset": 135000,
      "componentType": 5126,
      "count": 582,
      "type": "VEC3"
    },
    {
      "bufferView": 3,
      "byteOffset": 85344,
      "componentType": 5126,
      "count": 582,
      "type": "VEC4"
    },
    {
      "bufferView": 1,
      "byteOffset": 128016,
      "componentType": 5126,
      "count": 582,
      "type": "VEC2"
    },
    {
      "bufferView": 1,
      "byteOffset": 132672,
      "componentType": 5126,
      "count": 582,
      "type": "VEC2"
    },
    {
      "bufferView": 1,
      "byteOffset": 137328,
      "componentType": 5126,
      "count": 582,
      "type": "VEC2"
    },
    {
      "bufferView": 0,
      "byteOffset": 78384,
      "componentType": 5125,
      "count": 1704,
      "type": "SCALAR"
    },
    {
      "bufferView": 2,
      "byteOffset": 141984,
      "componentType": 5126,
      "count": 1304,
      "max": [
        5.621814727783203,
        266.3131103515625,
        8.49129581451416
      ],
      "min": [
        -5.621814727783203,
        -266.3131103515625,
        -8.491301536560059
      ],
      "type": "VEC3"
    },
    {
      "bufferView": 2,
      "byteOffset": 157632,
      "componentType": 5126,
      "count": 1304,
      "type": "VEC3"
    },
    {
      "bufferView": 3,
      "byteOffset": 94656,
      "componentType": 5126,
      "count": 1304,
      "type": "VEC4"
    },
    {
      "bufferView": 1,
      "byteOffset": 141984,
      "componentType": 5126,
      "count": 1304,
      "type": "VEC2"
    },
    {
      "bufferView": 1,
      "byteOffset": 152416,
      "componentType": 5126,
      "count": 1304,
      "type": "VEC2"
    },
    {
      "bufferView": 1,
      "byteOffset": 162848,
      "componentType": 5126,
      "count": 1304,
      "type": "VEC2"
    },
    {
      "bufferView": 0,
      "byteOffset": 85200,
      "componentType": 5125,
      "count": 5586,
      "type": "SCALAR"
    },
    {
      "bufferView": 2,
      "byteOffset": 173280,
      "componentType": 5126,
      "count": 1402,
      "max": [
        5.621814727783203,
        266.3131103515625,
        8.491301536560059
      ],
      "min": [
        -5.621814727783203,
        -266.3131103515625,
        -8.491301536560059
      ],
      "type": "VEC3"
    },
    {
      "bufferView": 2,
      "byteOffset": 190104,
      "componentType": 5126,
      "count": 1402,
      "type": "VEC3"
    },
    {
      "bufferView": 3,
      "byteOffset": 115520,
      "componentType": 5126,
      "count": 1402,
      "type": "VEC4"
    },
    {
      "bufferView": 1,
      "byteOffset": 173280,
      "componentType": 5126,
      "count": 1402,
      "type": "VEC2"
    },
    {
      "bufferView": 1,
      "byteOffset": 184496,
      "componentType": 5126,
      "count": 1402,
      "type": "VEC2"
    },
    {
      "bufferView": 1,
      "byteOffset": 195712,
      "componentType": 5126,
      "count": 1402,
      "type": "VEC2"
    },
    {
      "bufferView": 0,
      "byteOffset": 107544,
      "componentType": 5125,
      "count": 5892,
      "type": "SCALAR"
    },
    {
      "bufferView": 2,
      "byteOffset": 206928,
      "componentType": 5126,
      "count": 322,
      "max": [
        30.03118133544922,
        266.3131103515625,
        582.251708984375
      ],
      "min": [
        -2.384185791015625e-05,
        -266.3131103515625,
        -582.251708984375
      ],
      "type": "VEC3"
    },
    {
      "bufferView": 2,
      "byteOffset": 210792,
      "componentType": 5126,
      "count": 322,
      "type": "VEC3"
    },
    {
      "bufferView": 3,
      "byteOffset": 137952,
      "componentType": 5126,
      "count": 322,
      "type": "VEC4"
    },
    {
      "bufferView": 1,
      "byteOffset": 206928,
      "componentType": 5126,
      "count": 322,
      "type": "VEC2"
    },
    {
      "bufferView": 1,
      "byteOffset": 209504,
      "componentType": 5126,
      "count": 322,
      "type": "VEC2"
    },
    {
      "bufferView": 1,
      "byteOffset": 212080,
      "componentType": 5126,
      "count": 322,
      "type": "VEC2"
    },
    {
      "bufferView": 0,
      "byteOffset": 131112,
      "componentType": 5125,
      "count": 516,
      "type": "SCALAR"
    }
  ],
  "asset": {
    "generator": "fab-model-conversion",
    "version": "2.0"
  },
  "bufferViews": [
    {
      "buffer": 0,
      "byteLength": 133176,
      "target": 34963
    },
    {
      "buffer": 0,
      "byteLength": 214656,
      "byteOffset": 133176,
      "byteStride": 8,
      "target": 34962
    },
    {
      "buffer": 0,
      "byteLength": 214656,
      "byteOffset": 347832,
      "byteStride": 12,
      "target": 34962
    },
    {
      "buffer": 0,
      "byteLength": 143104,
      "byteOffset": 562488,
      "byteStride": 16,
      "target": 34962
    }
  ],
  "buffers": [
    {
      "byteLength": 705592,
      "uri": "scene.bin"
    }
  ],
  "images": [
    {
      "uri": "textures/frame_baseColor.png"
    },
    {
      "uri": "textures/frame_metallicRoughness.png"
    },
    {
      "uri": "textures/frame_normal.png"
    },
    {
      "uri": "textures/front_doors_baseColor.png"
    },
    {
      "uri": "textures/front_doors_metallicRoughness.png"
    },
    {
      "uri": "textures/front_doors_normal.png"
    },
    {
      "uri": "textures/corrugated_sides_baseColor.png"
    },
    {
      "uri": "textures/corrugated_sides_metallicRoughness.png"
    },
    {
      "uri": "textures/corrugated_sides_normal.png"
    }
  ],
  "materials": [
    {
      "doubleSided": true,
      "name": "frame",
      "normalTexture": {
        "index": 2
      },
      "pbrMetallicRoughness": {
        "baseColorTexture": {
          "index": 0
        },
        "metallicRoughnessTexture": {
          "index": 1
        }
      }
    },
    {
      "doubleSided": true,
      "name": "front_doors",
      "normalTexture": {
        "index": 5
      },
      "pbrMetallicRoughness": {
        "baseColorTexture": {
          "index": 3
        },
        "metallicRoughnessTexture": {
          "index": 4
        }
      }
    },
    {
      "doubleSided": true,
      "name": "corrugated_sides",
      "normalTexture": {
        "index": 8
      },
      "pbrMetallicRoughness": {
        "baseColorTexture": {
          "index": 6
        },
        "metallicRoughnessTexture": {
          "index": 7
        }
      }
    }
  ],
  "meshes": [
    {
      "name": "frame_frame_0",
      "primitives": [
        {
          "attributes": {
            "NORMAL": 1,
            "POSITION": 0,
            "TANGENT": 2,
            "TEXCOORD_0": 3,
            "TEXCOORD_1": 4,
            "TEXCOORD_2": 5
          },
          "indices": 6,
          "material": 0,
          "mode": 4
        }
      ]
    },
    {
      "name": "right door_front doors_0",
      "primitives": [
        {
          "attributes": {
            "NORMAL": 8,
            "POSITION": 7,
            "TANGENT": 9,
            "TEXCOORD_0": 10,
            "TEXCOORD_1": 11,
            "TEXCOORD_2": 12
          },
          "indices": 13,
          "material": 1,
          "mode": 4
        }
      ]
    },
    {
      "name": "doors.001_front doors_0",
      "primitives": [
        {
          "attributes": {
            "NORMAL": 15,
            "POSITION": 14,
            "TANGENT": 16,
            "TEXCOORD_0": 17,
            "TEXCOORD_1": 18,
            "TEXCOORD_2": 19
          },
          "indices": 20,
          "material": 1,
          "mode": 4
        }
      ]
    },
    {
      "name": "doors.002_front doors_0",
      "primitives": [
        {
          "attributes": {
            "NORMAL": 22,
            "POSITION": 21,
            "TANGENT": 23,
            "TEXCOORD_0": 24,
            "TEXCOORD_1": 25,
            "TEXCOORD_2": 26
          },
          "indices": 27,
          "material": 1,
          "mode": 4
        }
      ]
    },
    {
      "name": "right side_corrugated sides_0",
      "primitives": [
        {
          "attributes": {
            "NORMAL": 29,
            "POSITION": 28,
            "TANGENT": 30,
            "TEXCOORD_0": 31,
            "TEXCOORD_1": 32,
            "TEXCOORD_2": 33
          },
          "indices": 34,
          "material": 2,
          "mode": 4
        }
      ]
    },
    {
      "name": "left door_front doors_0",
      "primitives": [
        {
          "attributes": {
            "NORMAL": 36,
            "POSITION": 35,
            "TANGENT": 37,
            "TEXCOORD_0": 38,
            "TEXCOORD_1": 39,
            "TEXCOORD_2": 40
          },
          "indices": 41,
          "material": 1,
          "mode": 4
        }
      ]
    },
    {
      "name": "doors.004_front doors_0",
      "primitives": [
        {
          "attributes": {
            "NORMAL": 43,
            "POSITION": 42,
            "TANGENT": 44,
            "TEXCOORD_0": 45,
            "TEXCOORD_1": 46,
            "TEXCOORD_2": 47
          },
          "indices": 48,
          "material": 1,
          "mode": 4
        }
      ]
    },
    {
      "name": "doors.005_front doors_0",
      "primitives": [
        {
          "attributes": {
            "NORMAL": 50,
            "POSITION": 49,
            "TANGENT": 51,
            "TEXCOORD_0": 52,
            "TEXCOORD_1": 53,
            "TEXCOORD_2": 54
          },
          "indices": 55,
          "material": 1,
          "mode": 4
        }
      ]
    },
    {
      "name": "left side_corrugated sides_0",
      "primitives": [
        {
          "attributes": {
            "NORMAL": 57,
            "POSITION": 56,
            "TANGENT": 58,
            "TEXCOORD_0": 59,
            "TEXCOORD_1": 60,
            "TEXCOORD_2": 61
          },
          "indices": 62,
          "material": 2,
          "mode": 4
        }
      ]
    }
  ],
  "nodes": [
    {
      "children": [
        1
      ],
      "matrix": [
        1.0,
        0.0,
        0.0,
        0.0,
        0.0,
        2.220446049250313e-16,
        -1.0,
        0.0,
        0.0,
        1.0,
        2.220446049250313e-16,
        0.0,
        0.0,
        0.0,
        0.0,
        1.0
      ],
      "name": "Sketchfab_model"
    },
    {
      "children": [
        2
      ],
      "matrix": [
        0.009999999776482582,
        0.0,
        0.0,
        0.0,
        0.0,
        0.0,
        0.009999999776482582,
        0.0,
        0.0,
        -0.009999999776482582,
        0.0,
        0.0,
        0.0,
        0.0,
        0.0,
        1.0
      ],
      "name": "shipping cointainer.fbx"
    },
    {
      "children": [
        3,
        5,
        11,
        13,
        19
      ],
      "name": "RootNode"
    },
    {
      "children": [
        4
      ],
      "matrix": [
        1.9470718870540082e-07,
        0.0,
        -0.9999999999999811,
        0.0,
        0.0,
        1.0,
        0.0,
        0.0,
        0.9999999999999811,
        0.0,
        1.9470718870540082e-07,
        0.0,
        9.365087509155273,
        196.40614318847656,
        -10.632491111755371,
        1.0
      ],
      "name": "frame"
    },
    {
      "mesh": 0,
      "name": "frame_frame_0"
    },
    {
      "children": [
        6,
        7,
        9
      ],
      "matrix": [
        1.9470718870540082e-07,
        0.0,
        -0.9999999999999811,
        0.0,
        0.0,
        1.0,
        0.0,
        0.0,
        0.9999999999999811,
        0.0,
        1.9470718870540082e-07,
        0.0,
        622.7949829101563,
        251.5309295654297,
        -279.95703125,
        1.0
      ],
      "name": "right door"
    },
    {
      "mesh": 1,
      "name": "right door_front doors_0"
    },
    {
      "children": [
        8
      ],
      "matrix": [
        0.46085951356600063,
        0.0,
        0.8874731031167702,
        0.0,
        0.0,
        1.0,
        0.0,
        0.0,
        -0.8874731031167702,
        0.0,
        0.46085951356600063,
        0.0,
        -120.81736755371094,
        -61.51005554199219,
        6.241504192352295,
        1.0
      ],
      "name": "doors.001"
    },
    {
      "mesh": 2,
      "name": "doors.001_front doors_0"
    },
    {
      "children": [
        10
      ],
      "matrix": [
        1.9470718870540082e-07,
        0.0,
        0.9999999999999811,
        0.0,
        0.0,
        1.0,
        0.0,
        0.0,
        -0.9999999999999811,
        0.0,
        1.9470718870540082e-07,
        0.0,
        -197.71624755859375,
        -61.51005554199219,
        6.241509914398193,
        1.0
      ],
      "name": "doors.002"
    },
    {
      "mesh": 3,
      "name": "doors.002_front doors_0"
    },
    {
      "children": [
        12
      ],
      "matrix": [
        1.9470718870540082e-07,
        0.0,
        -0.9999999999999811,
        0.0,
        0.0,
        1.0,
        0.0,
        0.0,
        0.9999999999999811,
        0.0,
        1.9470718870540082e-07,
        0.0,
        9.365087509155273,
        196.40614318847656,
        -299.18505859375,
        1.0
      ],
      "name": "right side"
    },
    {
      "mesh": 4,
      "name": "right side_corrugated sides_0"
    },
    {
      "children": [
        14,
        15,
        17
      ],
      "matrix": [
        1.0,
        0.0,
        0.0,
        0.0,
        0.0,
        1.0,
        0.0,
        0.0,
        0.0,
        0.0,
        1.0,
        0.0,
        623.3260498046875,
        251.5309295654297,
        257.2362976074219,
        1.0
      ],
      "name": "left door"
    },
    {
      "mesh": 5,
      "name": "left door_front doors_0"
    },
    {
      "children": [
        16
      ],
      "matrix": [
        1.0,
        0.0,
        0.0,
        0.0,
        0.0,
        1.0,
        0.0,
        0.0,
        0.0,
        0.0,
        1.0,
        0.0,
        5.71044921875,
        -55.124786376953125,
        -119.361572265625,
        1.0
      ],
      "name": "doors.004"
    },
    {
      "mesh": 6,
      "name": "doors.004_front doors_0"
    },
    {
      "children": [
        18
      ],
      "matrix": [
        1.0,
        0.0,
        0.0,
        0.0,
        0.0,
        1.0,
        0.0,
        0.0,
        0.0,
        0.0,
        1.0,
        0.0,
        5.71044921875,
        -55.124786376953125,
        -196.2604522705078,
        1.0
      ],
      "name": "doors.005"
    },
    {
      "mesh": 7,
      "name": "doors.005_front doors_0"
    },
    {
      "children": [
        20
      ],
      "matrix": [
        1.9470718870540082e-07,
        0.0,
        0.9999999999999811,
        0.0,
        0.0,
        1.0,
        0.0,
        0.0,
        -0.9999999999999811,
        0.0,
        1.9470718870540082e-07,
        0.0,
        9.365087509155273,
        196.40614318847656,
        278.97039794921875,
        1.0
      ],
      "name": "left side"
    },
    {
      "mesh": 8,
      "name": "left side_corrugated sides_0"
    }
  ],
  "samplers": [
    {
      "magFilter": 9729,
      "minFilter": 9987,
      "wrapS": 10497,
      "wrapT": 10497
    }
  ],
  "scene": 0,
  "scenes": [
    {
      "name": "Sketchfab_Scene",
      "nodes": [
        0
      ]
    }
  ],
  "textures": [
    {
      "sampler": 0,
      "source": 0
    },
    {
      "sampler": 0,
      "source": 1
    },
    {
      "sampler": 0,
      "source": 2
    },
    {
      "sampler": 0,
      "source": 3
    },
    {
      "sampler": 0,
      "source": 4
    },
    {
      "sampler": 0,
      "source": 5
    },
    {
      "sampler": 0,
      "source": 6
    },
    {
      "sampler": 0,
      "source": 7
    },
    {
      "sampler": 0,
      "source": 8
    }
  ]
}
