{
  "accessors": [
    {
      "bufferView": 2,
      "componentType": 5126,
      "count": 306,
      "max": [
        10.379125595092773,
        9.17184829711914,
        25.298654556274414
      ],
      "min": [
        -24.658573150634766,
        -5.747501850128174,
        -8.592312812805176
      ],
      "type": "VEC3"
    },
    {
      "bufferView": 2,
      "byteOffset": 3672,
      "componentType": 5126,
      "count": 306,
      "type": "VEC3"
    },
    {
      "bufferView": 1,
      "componentType": 5126,
      "count": 306,
      "type": "VEC2"
    },
    {
      "bufferView": 0,
      "componentType": 5125,
      "count": 516,
      "type": "SCALAR"
    },
    {
      "bufferView": 2,
      "byteOffset": 7344,
      "componentType": 5126,
      "count": 65532,
      "max": [
        10.379134178161621,
        9.17184829711914,
        25.298704147338867
      ],
      "min": [
        -24.658586502075195,
        -6.774057865142822,
        -8.592323303222656
      ],
      "type": "VEC3"
    },
    {
      "bufferView": 2,
      "byteOffset": 793728,
      "componentType": 5126,
      "count": 65532,
      "type": "VEC3"
    },
    {
      "bufferView": 1,
      "byteOffset": 2448,
      "componentType": 5126,
      "count": 65532,
      "type": "VEC2"
    },
    {
      "bufferView": 0,
      "byteOffset": 2064,
      "componentType": 5125,
      "count": 332517,
      "type": "SCALAR"
    },
    {
      "bufferView": 2,
      "byteOffset": 1580112,
      "componentType": 5126,
      "count": 65532,
      "max": [
        4.56735897064209,
        4.523838043212891,
        21.33370018005371
      ],
      "min": [
        -23.455720901489258,
        -6.9127349853515625,
        -3.9082350730895996
      ],
      "type": "VEC3"
    },
    {
      "bufferView": 2,
      "byteOffset": 2366496,
      "componentType": 5126,
      "count": 65532,
      "type": "VEC3"
    },
    {
      "bufferView": 1,
      "byteOffset": 526704,
      "componentType": 5126,
      "count": 65532,
      "type": "VEC2"
    },
    {
      "bufferView": 0,
      "byteOffset": 1332132,
      "componentType": 5125,
      "count": 340650,
      "type": "SCALAR"
    },
    {
      "bufferView": 2,
      "byteOffset": 3152880,
      "componentType": 5126,
      "count": 65532,
      "max": [
        10.379129409790039,
        4.545294761657715,
        25.298702239990234
      ],
      "min": [
        -12.967392921447754,
        -6.8998541831970215,
        1.6999189853668213
      ],
      "type": "VEC3"
    },
    {
      "bufferView": 2,
      "byteOffset": 3939264,
      "componentType": 5126,
      "count": 65532,
      "type": "VEC3"
    },
    {
      "bufferView": 1,
      "byteOffset": 1050960,
      "componentType": 5126,
      "count": 65532,
      "type": "VEC2"
    },
    {
      "bufferView": 0,
      "byteOffset": 2694732,
      "componentType": 5125,
      "count": 339846,
      "type": "SCALAR"
    },
    {
      "bufferView": 2,
      "byteOffset": 4725648,
      "componentType": 5126,
      "count": 65534,
      "max": [
        10.379131317138672,
        4.468969821929932,
        25.298702239990234
      ],
      "min": [
        -24.658586502075195,
        -6.787282943725586,
        5.518861770629883
      ],
      "type": "VEC3"
    },
    {
      "bufferView": 2,
      "byteOffset": 5512056,
      "componentType": 5126,
      "count": 65534,
      "type": "VEC3"
    },
    {
      "bufferView": 1,
      "byteOffset": 1575216,
      "componentType": 5126,
      "count": 65534,
      "type": "VEC2"
    },
    {
      "bufferView": 0,
      "byteOffset": 4054116,
      "componentType": 5125,
      "count": 319608,
      "type": "SCALAR"
    },
    {
      "bufferView": 2,
      "byteOffset": 6298464,
      "componentType": 5126,
      "count": 65532,
      "max": [
        10.379134178161621,
        4.879766941070557,
        25.298702239990234
      ],
      "min": [
        -24.658580780029297,
        -6.736941814422607,
        -8.592320442199707
      ],
      "type": "VEC3"
    },
    {
      "bufferView": 2,
      "byteOffset": 7084848,
      "componentType": 5126,
      "count": 65532,
      "type": "VEC3"
    },
    {
      "bufferView": 1,
      "byteOffset": 2099488,
      "componentType": 5126,
      "count": 65532,
      "type": "VEC2"
    },
    {
      "bufferView": 0,
      "byteOffset": 5332548,
      "componentType": 5125,
      "count": 314031,
      "type": "SCALAR"
    },
    {
      "bufferView": 2,
      "byteOffset": 7871232,
      "componentType": 5126,
      "count": 65532,
      "max": [
        10.379128456115723,
        4.6523661613464355,
        10.641732215881348
      ],
      "min": [
        -21.26243019104004,
        -6.805978775024414,
        -8.592323303222656
      ],
      "type": "VEC3"
    },
    {
      "bufferView": 2,
      "byteOffset": 8657616,
      "componentType": 5126,
      "count": 65532,
      "type": "VEC3"
    },
    {
      "bufferView": 1,
      "byteOffset": 2623744,
      "componentType": 5126,
      "count": 65532,
      "type": "VEC2"
    },
    {
      "bufferView": 0,
      "byteOffset": 6588672,
      "componentType": 5125,
      "count": 307338,
      "type": "SCALAR"
    },
    {
      "bufferView": 2,
      "byteOffset": 9444000,
      "componentType": 5126,
      "count": 46007,
      "max": [
        10.379129409790039,
        4.738190174102783,
        25.298702239990234
      ],
      "min": [
        -24.65857696533203,
        -6.8696208000183105,
        -8.592313766479492
      ],
      "type": "VEC3"
    },
    {
      "bufferView": 2,
      "byteOffset": 9996084,
      "componentType": 5126,
      "count": 46007,
      "type": "VEC3"
    },
    {
      "bufferView": 1,
      "byteOffset": 3148000,
      "componentType": 5126,
      "count": 46007,
      "type": "VEC2"
    },
    {
      "bufferView": 0,
      "byteOffset": 7818024,
      "componentType": 5125,
      "count": 199986,
      "type": "SCALAR"
    },
    {
      "bufferView": 2,
      "byteOffset": 10548168,
      "componentType": 5126,
      "count": 5118,
      "max": [
        10.379124641418457,
        4.556794166564941,
        25.298702239990234
      ],
      "min": [
        -24.65857696533203,
        -6.7110419273376465,
        -8.59230899810791
      ],
      "type": "VEC3"
    },
    {
      "bufferView": 2,
      "byteOffset": 10609584,
      "componentType": 5126,
      "count": 5118,
      "type": "VEC3"
    },
    {
      "bufferView": 1,
      "byteOffset": 3516056,
      "componentType": 5126,
      "count": 5118,
      "type": "VEC2"
    },
    {
      "bufferView": 0,
      "byteOffset": 8617968,
      "componentType": 5125,
      "count": 5154,
      "type": "SCALAR"
    }
  ],
  "asset": {
    "generator": "fab-model-conversion",
    "version": "2.0"
  },
  "bufferViews": [
    {
      "buffer": 0,
      "byteLength": 8638584,
      "target": 34963
    },
    {
      "buffer": 0,
      "byteLength": 3557000,
      "byteOffset": 8638584,
      "byteStride": 8,
      "target": 34962
    },
    {
      "buffer": 0,
      "byteLength": 10671000,
      "byteOffset": 12195584,
      "byteStride": 12,
      "target": 34962
    }
  ],
  "buffers": [
    {
      "byteLength": 22866584,
      "uri": "scene.bin"
    }
  ],
  "extensionsUsed": [
    "KHR_materials_unlit"
  ],
  "images": [
    {
      "uri": "textures/HallsGreenHAABuilding02HallsGreenHAABuilding02_baseColor.jpeg"
    }
  ],
  "materials": [
    {
      "doubleSided": true,
      "extensions": {
        "KHR_materials_unlit": {}
      },
      "name": "HallsGreenHAABuilding02HallsGreenHAABuilding02",
      "pbrMetallicRoughness": {
        "baseColorTexture": {
          "index": 0
        },
        "metallicFactor": 0.0
      }
    }
  ],
  "meshes": [
    {
      "name": "Object_0",
      "primitives": [
        {
          "attributes": {
            "NORMAL": 1,
            "POSITION": 0,
            "TEXCOORD_0": 2
          },
          "indices": 3,
          "material": 0,
          "mode": 4
        }
      ]
    },
    {
      "name": "Object_1",
      "primitives": [
        {
          "attributes": {
            "NORMAL": 5,
            "POSITION": 4,
            "TEXCOORD_0": 6
          },
          "indices": 7,
          "material": 0,
          "mode": 4
        }
      ]
    },
    {
      "name": "Object_2",
      "primitives": [
        {
          "attributes": {
            "NORMAL": 9,
            "POSITION": 8,
            "TEXCOORD_0": 10
          },
          "indices": 11,
          "material": 0,
          "mode": 4
        }
      ]
    },
    {
      "name": "Object_3",
      "primitives": [
        {
          "attributes": {
            "NORMAL": 13,
            "POSITION": 12,
            "TEXCOORD_0": 14
          },
          "indices": 15,
          "material": 0,
          "mode": 4
        }
      ]
    },
    {
      "name": "Object_4",
      "primitives": [
        {
          "attributes": {
            "NORMAL": 17,
            "POSITION": 16,
            "TEXCOORD_0": 18
          },
          "indices": 19,
          "material": 0,
          "mode": 4
        }
      ]
    },
    {
      "name": "Object_5",
      "primitives": [
        {
          "attributes": {
            "NORMAL": 21,
            "POSITION": 20,
            "TEXCOORD_0": 22
          },
          "indices": 23,
          "material": 0,
          "mode": 4
        }
      ]
    },
    {
      "name": "Object_6",
      "primitives": [
        {
          "attributes": {
            "NORMAL": 25,
            "POSITION": 24,
            "TEXCOORD_0": 26
          },
          "indices": 27,
          "material": 0,
          "mode": 4
        }
      ]
    },
    {
      "name": "Object_7",
      "primitives": [
        {
          "attributes": {
            "NORMAL": 29,
            "POSITION": 28,
            "TEXCOORD_0": 30
          },
          "indices": 31,
          "material": 0,
          "mode": 4
        }
      ]
    },
    {
      "name": "Object_8",
      "primitives": [
        {
          "attributes": {
            "NORMAL": 33,
            "POSITION": 32,
            "TEXCOORD_0": 34
          },
          "indices": 35,
          "material": 0,
          "mode": 4
        }
      ]
    }
  ],
  "nodes": [
    {
      "children": [
        1
      ],
      "matrix": [
        1.0,
        0.0,
        0.0,
        0.0,
        0.0,
        2.220446049250313e-16,
        -1.0,
        0.0,
        0.0,
        1.0,
        2.220446049250313e-16,
        0.0,
        0.0,
        0.0,
        0.0,
        1.0
      ],
      "name": "Sketchfab_model"
    },
    {
      "children": [
        2,
        3,
        4,
        5,
        6,
        7,
        8,
        9,
        10
      ],
      "name": "HallsGreenHAABuilding02.obj.cleaner.materialmerger.gles"
    },
    {
      "mesh": 0,
      "name": "Object_2"
    },
    {
      "mesh": 1,
      "name": "Object_3"
    },
    {
      "mesh": 2,
      "name": "Object_4"
    },
    {
      "mesh": 3,
      "name": "Object_5"
    },
    {
      "mesh": 4,
      "name": "Object_6"
    },
    {
      "mesh": 5,
      "name": "Object_7"
    },
    {
      "mesh": 6,
      "name": "Object_8"
    },
    {
      "mesh": 7,
      "name": "Object_9"
    },
    {
      "mesh": 8,
      "name": "Object_10"
    }
  ],
  "samplers": [
    {
      "magFilter": 9729,
      "minFilter": 9987,
      "wrapS": 10497,
      "wrapT": 10497
    }
  ],
  "scene": 0,
  "scenes": [
    {
      "name": "Sketchfab_Scene",
      "nodes": [
        0
      ]
    }
  ],
  "textures": [
    {
      "sampler": 0,
      "source": 0
    }
  ]
}
